<svg width="100" height="100" viewBox="0 0 100 100" fill="none" xmlns="http://www.w3.org/2000/svg">
<path d="M0 15.5489C0 7.44746 7.32967 1.31934 15.303 2.75454L45.1758 8.13164C47.6893 8.58408 50 6.6522 50 4.09823V4.09823C50 1.83484 51.8348 0 54.0982 0L87 0C94.1797 0 100 5.8203 100 13V22.1878C100 23.7173 99.7301 25.2347 99.2027 26.6704L92.8277 44.0247C91.9406 46.4395 93.7278 49 96.3004 49V49C98.3436 49 100 50.6564 100 52.6996V87C100 94.1797 94.1797 100 87 100H77.2687C75.7676 100 74.2778 99.74 72.8654 99.2315L54.9729 92.7902C52.5522 91.9188 50 93.7125 50 96.2853V96.2853C50 98.3369 48.3369 100 46.2853 100H13C5.8203 100 0 94.1797 0 87V76.8122C0 75.2827 0.269903 73.7653 0.797293 72.3296L7.16479 54.9958C8.09831 52.4546 6.40103 49.7112 3.7103 49.4123V49.4123C1.59802 49.1776 0 47.3921 0 45.2669V15.5489Z" fill="url(#paint0_linear_3_7)"/>
<path d="M37.1619 31.4545L49.2756 68.0909H49.7528L61.8438 31.4545H71.1165L54.7074 78H44.2983L27.9119 31.4545H37.1619Z" fill="white"/>
<defs>
<linearGradient id="paint0_linear_3_7" x1="50" y1="0" x2="50" y2="100" gradientUnits="userSpaceOnUse">
<stop stop-color="#112C78"/>
<stop offset="1" stop-color="#164DE7"/>
</linearGradient>
</defs>
</svg>
