<svg width="251" height="70" viewBox="0 0 251 70" fill="none" xmlns="http://www.w3.org/2000/svg">
<path d="M0 15.5489C0 7.44747 7.32967 1.31934 15.303 2.75454L31.623 5.69215C33.3825 6.00886 35 4.65654 35 2.86876V2.86876C35 1.28439 36.2844 0 37.8688 0L57 0C64.1797 0 70 5.8203 70 13V15.1323C70 16.467 69.7645 17.7912 69.3043 19.044L64.9794 30.8173C64.3584 32.5076 65.6095 34.3 67.4103 34.3V34.3C68.8405 34.3 70 35.4595 70 36.8897V57C70 64.1797 64.1797 70 57 70H54.5321C53.1875 70 51.8531 69.7671 50.588 69.3117L38.481 64.9532C36.7865 64.3432 35 65.5988 35 67.3997V67.3997C35 68.8358 33.8358 70 32.3997 70H13C5.8203 70 0 64.1797 0 57V54.3851C0 52.9066 0.260903 51.4398 0.770706 50.052L5.01535 38.4971C5.66882 36.7182 4.48072 34.7979 2.59721 34.5886V34.5886C1.11861 34.4243 0 33.1745 0 31.6868V15.5489Z" fill="url(#paint0_linear_4_10)"/>
<path d="M27.2887 24.9091L34.8597 47.8068H35.158L42.7148 24.9091H48.5103L38.2546 54H31.7489L21.5075 24.9091H27.2887Z" fill="white"/>
<path d="M77.6509 24.6364L82.9506 40.6648H83.1594L88.4492 24.6364H92.506L85.3271 45H80.7731L73.604 24.6364H77.6509ZM98.8771 24.6364V45H95.1882V24.6364H98.8771ZM102.872 45V24.6364H106.561V33.9929H106.809L114.754 24.6364H119.258L111.383 33.7741L119.328 45H114.893L108.818 36.2699L106.561 38.9347V45H102.872ZM120.926 27.7287V24.6364H137.173V27.7287H130.879V45H127.22V27.7287H120.926ZM157.04 24.6364V45H153.759L144.163 31.1293H143.994V45H140.305V24.6364H143.607L153.192 38.517H153.371V24.6364H157.04ZM177.794 24.6364V45H174.512L164.917 31.1293H164.748V45H161.059V24.6364H164.36L173.946 38.517H174.125V24.6364H177.794ZM199.244 31.5071H195.525C195.419 30.8973 195.223 30.357 194.938 29.8864C194.653 29.4091 194.299 29.0047 193.874 28.6733C193.45 28.3419 192.966 28.0933 192.423 27.9276C191.886 27.7552 191.306 27.669 190.683 27.669C189.576 27.669 188.594 27.9474 187.739 28.5043C186.884 29.0544 186.215 29.8632 185.731 30.9304C185.247 31.991 185.005 33.2869 185.005 34.8182C185.005 36.3759 185.247 37.6884 185.731 38.7557C186.221 39.8163 186.891 40.6184 187.739 41.1619C188.594 41.6989 189.572 41.9673 190.673 41.9673C191.282 41.9673 191.853 41.8878 192.383 41.7287C192.92 41.563 193.4 41.321 193.825 41.0028C194.255 40.6847 194.617 40.2936 194.908 39.8295C195.207 39.3655 195.412 38.8352 195.525 38.2386L199.244 38.2585C199.104 39.2263 198.803 40.1345 198.339 40.983C197.881 41.8314 197.281 42.5805 196.539 43.2301C195.797 43.8731 194.928 44.3769 193.934 44.7415C192.94 45.0994 191.836 45.2784 190.623 45.2784C188.833 45.2784 187.236 44.8641 185.83 44.0355C184.425 43.2069 183.318 42.0104 182.509 40.446C181.701 38.8816 181.296 37.0057 181.296 34.8182C181.296 32.6241 181.704 30.7481 182.519 29.1903C183.335 27.6259 184.445 26.4295 185.85 25.6009C187.255 24.7723 188.846 24.358 190.623 24.358C191.756 24.358 192.81 24.517 193.785 24.8352C194.759 25.1534 195.628 25.6207 196.39 26.2372C197.152 26.8471 197.779 27.5961 198.269 28.4844C198.766 29.366 199.091 30.3736 199.244 31.5071ZM202.622 45V24.6364H206.311V33.2571H215.747V24.6364H219.446V45H215.747V36.3494H206.311V45H202.622ZM227.147 24.6364V45H223.458V24.6364H227.147ZM231.141 45V24.6364H234.83V33.9929H235.079L243.023 24.6364H247.528L239.653 33.7741L247.597 45H243.163L237.087 36.2699L234.83 38.9347V45H231.141Z" fill="black"/>
<defs>
<linearGradient id="paint0_linear_4_10" x1="35" y1="0" x2="35" y2="70" gradientUnits="userSpaceOnUse">
<stop stop-color="#112C78"/>
<stop offset="1" stop-color="#164DE7"/>
</linearGradient>
</defs>
</svg>
